<mxfile host="app.diagrams.net" agent="Mozilla/5.0 (Windows NT 10.0; Win64; x64) AppleWebKit/537.36 (KHTML, like Gecko) Chrome/134.0.0.0 Safari/537.36" version="26.2.3">
  <diagram name="第 1 页" id="VR1WDERAoFwDNw6kStVp">
    <mxGraphModel dx="1428" dy="751" grid="1" gridSize="10" guides="1" tooltips="1" connect="1" arrows="1" fold="1" page="1" pageScale="1" pageWidth="827" pageHeight="1169" math="0" shadow="0">
      <root>
        <mxCell id="0" />
        <mxCell id="1" parent="0" />
        <mxCell id="d2Ynrq-bO7bLKnInAaX6-1" value="" style="ellipse;whiteSpace=wrap;html=1;aspect=fixed;fillColor=#f8cecc;strokeColor=#b85450;fontSize=16;" vertex="1" parent="1">
          <mxGeometry x="120" y="190" width="190" height="190" as="geometry" />
        </mxCell>
        <mxCell id="d2Ynrq-bO7bLKnInAaX6-2" value="A1" style="whiteSpace=wrap;html=1;aspect=fixed;fillColor=#f8cecc;strokeColor=#b85450;fontSize=16;" vertex="1" parent="1">
          <mxGeometry x="150" y="230" width="50" height="50" as="geometry" />
        </mxCell>
        <mxCell id="d2Ynrq-bO7bLKnInAaX6-3" value="A3" style="whiteSpace=wrap;html=1;aspect=fixed;fillColor=#f8cecc;strokeColor=#b85450;fontSize=16;" vertex="1" parent="1">
          <mxGeometry x="220" y="230" width="50" height="50" as="geometry" />
        </mxCell>
        <mxCell id="d2Ynrq-bO7bLKnInAaX6-4" value="A5" style="whiteSpace=wrap;html=1;aspect=fixed;fillColor=#f8cecc;strokeColor=#b85450;fontSize=16;" vertex="1" parent="1">
          <mxGeometry x="150" y="300" width="50" height="50" as="geometry" />
        </mxCell>
        <mxCell id="d2Ynrq-bO7bLKnInAaX6-5" value="A7" style="whiteSpace=wrap;html=1;aspect=fixed;fillColor=#f8cecc;strokeColor=#b85450;fontSize=16;" vertex="1" parent="1">
          <mxGeometry x="220" y="300" width="50" height="50" as="geometry" />
        </mxCell>
        <mxCell id="d2Ynrq-bO7bLKnInAaX6-6" value="" style="ellipse;whiteSpace=wrap;html=1;aspect=fixed;fillColor=#ffe6cc;strokeColor=#d79b00;fontSize=16;" vertex="1" parent="1">
          <mxGeometry x="480" y="190" width="190" height="190" as="geometry" />
        </mxCell>
        <mxCell id="d2Ynrq-bO7bLKnInAaX6-7" value="A2" style="whiteSpace=wrap;html=1;aspect=fixed;fillColor=#ffe6cc;strokeColor=#d79b00;fontSize=16;" vertex="1" parent="1">
          <mxGeometry x="510" y="230" width="50" height="50" as="geometry" />
        </mxCell>
        <mxCell id="d2Ynrq-bO7bLKnInAaX6-8" value="A4" style="whiteSpace=wrap;html=1;aspect=fixed;fillColor=#ffe6cc;strokeColor=#d79b00;fontSize=16;" vertex="1" parent="1">
          <mxGeometry x="590" y="230" width="50" height="50" as="geometry" />
        </mxCell>
        <mxCell id="d2Ynrq-bO7bLKnInAaX6-9" value="A6" style="whiteSpace=wrap;html=1;aspect=fixed;fillColor=#ffe6cc;strokeColor=#d79b00;fontSize=16;" vertex="1" parent="1">
          <mxGeometry x="510" y="300" width="50" height="50" as="geometry" />
        </mxCell>
        <mxCell id="d2Ynrq-bO7bLKnInAaX6-10" value="A8" style="whiteSpace=wrap;html=1;aspect=fixed;fillColor=#ffe6cc;strokeColor=#d79b00;fontSize=16;" vertex="1" parent="1">
          <mxGeometry x="590" y="300" width="50" height="50" as="geometry" />
        </mxCell>
        <mxCell id="d2Ynrq-bO7bLKnInAaX6-11" value="" style="shape=flexArrow;endArrow=classic;startArrow=classic;html=1;rounded=0;width=12;startSize=1.79;fillColor=#dae8fc;strokeColor=#6c8ebf;fontSize=16;" edge="1" parent="1">
          <mxGeometry width="100" height="100" relative="1" as="geometry">
            <mxPoint x="330" y="284.5" as="sourcePoint" />
            <mxPoint x="470" y="284.5" as="targetPoint" />
          </mxGeometry>
        </mxCell>
        <mxCell id="d2Ynrq-bO7bLKnInAaX6-13" value="RAID0" style="text;html=1;align=center;verticalAlign=middle;resizable=0;points=[];autosize=1;strokeColor=none;fillColor=none;fontSize=16;" vertex="1" parent="1">
          <mxGeometry x="349" y="230" width="70" height="30" as="geometry" />
        </mxCell>
      </root>
    </mxGraphModel>
  </diagram>
</mxfile>
